<svg width="223" height="36" viewBox="0 0 223 36" fill="none" xmlns="http://www.w3.org/2000/svg">
<path d="M10.1924 3.37272C10.6257 3.20122 14.6112 1.71496 18.6835 4.05871C16.279 4.85986 14.9702 5.39854 12.7051 6.51679C11.8964 5.6879 9.87476 4.49887 9.75923 4.20162C9.61483 3.83005 9.75922 3.54421 10.1924 3.37272Z" fill="white"/>
<path fill-rule="evenodd" clip-rule="evenodd" d="M10.021 2.94804C10.4864 2.76381 14.6509 1.20859 18.916 3.66331L19.7968 4.17029L18.8311 4.49205C16.4468 5.28647 15.1577 5.81706 12.9115 6.92595L12.6083 7.07568L12.3728 6.83437C12.0047 6.45698 11.3376 5.97901 10.7042 5.53217C10.6757 5.51207 10.6473 5.49203 10.619 5.47209C10.3428 5.2774 10.0788 5.09125 9.87303 4.93466C9.75985 4.84852 9.65485 4.76424 9.57111 4.68708C9.52928 4.64854 9.48635 4.60594 9.44833 4.56099C9.41498 4.52157 9.36241 4.45395 9.32812 4.36572C9.2224 4.0937 9.20059 3.78833 9.34823 3.5034C9.48982 3.23012 9.74596 3.05692 10.021 2.94804ZM17.5035 3.97701C13.9725 2.44444 10.7325 3.65148 10.3642 3.79726C10.2061 3.85988 10.1734 3.91534 10.1706 3.92075L10.1705 3.92087C10.1694 3.92296 10.1674 3.92698 10.1674 3.93939C10.1674 3.94961 10.1689 3.96754 10.1763 3.99421C10.1827 4.00062 10.1908 4.00842 10.2009 4.01767C10.253 4.06567 10.3312 4.12953 10.4364 4.20962C10.6279 4.35534 10.8775 4.53135 11.1583 4.72933C11.1855 4.74848 11.2129 4.76783 11.2406 4.78738C11.7463 5.14408 12.3484 5.57108 12.7903 5.96432C14.5663 5.09537 15.7801 4.57955 17.5035 3.97701ZM10.157 3.97387C10.1538 3.97016 10.1544 3.97034 10.1572 3.97414C10.1571 3.97405 10.1571 3.97396 10.157 3.97387Z" fill="#3A3A3A"/>
<path d="M19.7841 24.6492C20.2469 24.4367 24.4319 22.4132 25.6052 17.4493C23.1571 18.7417 21.7422 19.3682 19.144 20.3131C19.203 21.5714 18.641 24.0548 18.7931 24.3687C18.9832 24.7611 19.3212 24.8617 19.7841 24.6492Z" fill="white"/>
<path fill-rule="evenodd" clip-rule="evenodd" d="M19.9789 25.0641C20.4732 24.8372 24.8315 22.7322 26.0555 17.5535L26.2878 16.5708L25.3881 17.0458C22.9588 18.3283 21.5633 18.9462 18.985 19.8839L18.6671 19.9995L18.6828 20.3343C18.7099 20.912 18.5925 21.8001 18.4763 22.6325C18.471 22.67 18.4658 22.7073 18.4606 22.7445C18.4097 23.1082 18.3612 23.4549 18.3327 23.7335C18.317 23.8867 18.3061 24.031 18.3052 24.1528C18.3048 24.2137 18.3068 24.2775 18.3141 24.3388C18.3205 24.3929 18.3347 24.4796 18.3768 24.5665C18.5123 24.846 18.733 25.0819 19.058 25.1751C19.3703 25.2646 19.6904 25.1966 19.9789 25.0641ZM24.8619 18.3529C23.4595 22.3719 19.9895 24.051 19.59 24.2344C19.4156 24.3145 19.3353 24.3023 19.3153 24.2966C19.3152 24.2966 19.3151 24.2965 19.3149 24.2965C19.3077 24.2944 19.2743 24.285 19.2302 24.209C19.2296 24.1967 19.2292 24.1803 19.2294 24.1591C19.2299 24.0801 19.2375 23.9691 19.2522 23.8257C19.2789 23.5649 19.3249 23.2355 19.3766 22.8662C19.3816 22.8304 19.3867 22.7942 19.3918 22.7577C19.4863 22.0805 19.5966 21.2748 19.6095 20.6307C21.6909 19.8661 23.0293 19.29 24.8619 18.3529ZM19.2327 24.2368C19.2327 24.2367 19.2325 24.2354 19.232 24.2329C19.2324 24.2356 19.2326 24.2368 19.2327 24.2368Z" fill="#3A3A3A"/>
<path d="M11.6077 7.11702C18.4525 3.17265 30.5248 0.0571066 32.4887 7.8887C34.4526 15.7203 20.0987 19.1788 17.9038 20.6936C15.7088 22.2084 11.5615 24.4264 13.3406 27.6963C15.5644 31.7836 24.893 31.6406 24.7486 27.3533C24.6042 23.066 26.7414 17.8354 27.7811 27.0675C33.2801 23.7977 31.6319 27.1723 30.1205 29.2684C25.8172 34.9849 11.8058 39.5496 2.91453 30.0973C-3.83382 22.9231 4.76291 11.0614 11.6077 7.11702Z" fill="white"/>
<mask id="mask0" mask-type="alpha" maskUnits="userSpaceOnUse" x="0" y="3" width="33" height="33">
<path d="M11.6077 7.11702C18.4525 3.17265 30.5248 0.0571065 32.4887 7.8887C34.4526 15.7203 20.0988 19.1788 17.9038 20.6936C15.7088 22.2084 11.5615 24.4264 13.3406 27.6963C15.5644 31.7836 24.893 31.6406 24.7486 27.3533C24.6042 23.066 26.7414 17.8354 27.7811 27.0675C33.2801 23.7977 31.6319 27.1723 30.1205 29.2684C25.8172 34.9849 11.8058 39.5496 2.91453 30.0973C-3.83382 22.9231 4.76291 11.0614 11.6077 7.11702Z" fill="white"/>
</mask>
<g mask="url(#mask0)">
<path d="M26.0341 28.3147C26.7157 29.2351 26.889 30.687 26.2941 31.7274C25.7049 32.7678 24.3417 33.3966 23.354 33.1851C22.3663 32.9736 21.754 31.9218 21.1186 30.8585C20.489 29.7953 19.8421 28.7206 20.1482 28.0117C20.4543 27.3029 21.7193 26.9599 22.9439 26.9828C24.1684 27.0056 25.3583 27.3886 26.0341 28.3147Z" fill="#EF7B48"/>
<path d="M16.0305 7.64481C17.4298 9.98216 18.4292 12.6012 17.535 13.603C16.6512 14.6047 13.8632 13.9995 11.1488 13.9577C8.43435 13.916 5.79359 14.4377 4.64681 13.2899C3.50002 12.1421 3.84721 9.31435 5.17285 7.01874C6.48797 4.72313 8.78154 2.94924 10.8226 3.09533C12.8531 3.24141 14.6417 5.30746 16.0305 7.64481Z" fill="#EF7B48"/>
<path d="M10.5649 24.2451C11.2486 26.1049 10.5028 28.1057 9.44614 30.1153C8.38952 32.1249 7.02213 34.1522 6.0099 33.9407C5.00655 33.7379 4.35838 31.2964 3.9233 29.6394C3.48822 27.9823 3.26624 27.1185 3.58589 25.4703C3.91442 23.822 4.7757 21.3805 6.2674 21.0279C7.7591 20.6666 9.87234 22.3853 10.5649 24.2451Z" fill="#EF7B48"/>
<path d="M29.7162 11.5631C30.0526 12.4729 29.8676 13.3577 29.4388 14.8684C29.0099 16.3792 28.3373 18.5243 26.8994 18.95C25.47 19.384 23.2923 18.1069 22.9055 16.6212C22.5271 15.1355 23.9397 13.4495 25.0328 12.0973C26.1259 10.7451 26.891 9.74354 27.7066 9.7185C28.5138 9.69346 29.3799 10.645 29.7162 11.5631Z" fill="#EF7B48"/>
</g>
<path fill-rule="evenodd" clip-rule="evenodd" d="M29.5664 3.50027C31.2026 4.30777 32.4138 5.69094 32.9373 7.77858C33.4678 9.89414 32.8875 11.7177 31.7161 13.2557C30.5568 14.7777 28.815 16.0287 26.9841 17.0576C25.1482 18.0894 23.1863 18.9176 21.5604 19.5782C21.3151 19.6778 21.0783 19.7733 20.8508 19.8651C20.3197 20.0793 19.8398 20.2728 19.4239 20.4498C18.8206 20.7066 18.3984 20.9098 18.1682 21.0687C17.9205 21.2397 17.6552 21.4153 17.3811 21.5969C16.3924 22.2517 15.2874 22.9834 14.4696 23.8492C13.9551 24.3937 13.5901 24.9576 13.443 25.5456C13.2995 26.1195 13.3535 26.7552 13.7475 27.4795C14.2386 28.3821 15.1398 29.0807 16.2611 29.5485C17.3802 30.0154 18.6845 30.2371 19.9218 30.2081C21.1641 30.179 22.2969 29.8985 23.0941 29.4031C23.8757 28.9174 24.3163 28.2436 24.2868 27.3686C24.2495 26.2598 24.3593 25.0931 24.5627 24.11C24.6644 23.6182 24.7912 23.164 24.9389 22.7814C25.0831 22.4078 25.2609 22.0656 25.4821 21.8297C25.7078 21.5887 26.0722 21.3765 26.4989 21.5461C26.8475 21.6846 27.0874 22.0342 27.2682 22.4234C27.6067 23.1518 27.91 24.4059 28.1567 26.3213C29.2221 25.726 30.0173 25.395 30.5938 25.2878C30.9328 25.2247 31.2701 25.2245 31.5499 25.3687C31.862 25.5296 32.0031 25.8155 32.0384 26.1001C32.0713 26.3654 32.0185 26.6521 31.937 26.9204C31.8533 27.1958 31.7274 27.4899 31.5798 27.7839C31.2844 28.3723 30.8836 28.9975 30.4967 29.5341L30.4939 29.5379L30.4911 29.5416C28.2491 32.5199 23.5454 35.1379 18.2986 35.8245C13.0286 36.5141 7.14318 35.2639 2.57637 30.4089C-0.988287 26.6193 -0.449862 21.6254 1.74898 17.1944C3.94939 12.7602 7.87227 8.74048 11.3753 6.72185C14.8397 4.72542 19.6371 2.9301 23.8455 2.63077C25.9502 2.48107 27.9498 2.70247 29.5664 3.50027ZM23.9117 3.54305C19.8818 3.82969 15.2206 5.56433 11.8403 7.51226C8.49849 9.438 4.7006 13.3213 2.57854 17.5976C0.454901 21.8771 0.0691336 26.4011 3.25282 29.7857C7.57724 34.383 13.1431 35.5766 18.1775 34.9178C23.2328 34.2563 27.6847 31.7356 29.7472 28.9989C30.1151 28.4884 30.4859 27.9073 30.7521 27.377C30.8856 27.111 30.9882 26.8669 31.0519 26.6571C31.1179 26.4402 31.1314 26.2946 31.1211 26.2115C31.119 26.1947 31.1163 26.1834 31.1142 26.1764C31.0848 26.1664 30.9865 26.1453 30.7645 26.1867C30.2562 26.2812 29.3886 26.6453 28.0192 27.4595L27.4017 27.8267L27.3219 27.1182C27.0625 24.8142 26.7394 23.4743 26.4286 22.8056C26.3195 22.5709 26.2333 22.4663 26.1884 22.4228C26.1803 22.4303 26.1708 22.4398 26.1597 22.4516C26.0577 22.5604 25.9309 22.7743 25.8022 23.1078C25.677 23.4322 25.5627 23.8362 25.4681 24.2934C25.2788 25.2083 25.1757 26.3032 25.2105 27.3381C25.2532 28.6067 24.5819 29.5585 23.5855 30.1777C22.6047 30.7872 21.2935 31.0909 19.9437 31.1225C18.5889 31.1542 17.1532 30.9133 15.9021 30.3914C14.6535 29.8704 13.5546 29.0542 12.9338 27.9131C12.4383 27.0025 12.3436 26.1348 12.5459 25.3258C12.7447 24.531 13.22 23.8326 13.7944 23.2245C14.6935 22.2728 15.9232 21.4597 16.9194 20.801C17.1786 20.6296 17.4219 20.4687 17.6395 20.3185C17.958 20.0987 18.4646 19.8625 19.0587 19.6096C19.4832 19.4289 19.9762 19.2301 20.5118 19.0141C20.7374 18.9231 20.9706 18.8291 21.2094 18.732C22.8308 18.0733 24.7463 17.2634 26.5277 16.2623C28.3141 15.2583 29.9297 14.0815 30.9781 12.7052C32.0143 11.3447 32.4917 9.79912 32.0403 7.99889C31.5819 6.17073 30.5475 5.00649 29.1539 4.31879C27.7408 3.62138 25.9262 3.39977 23.9117 3.54305ZM26.2239 22.3957C26.2238 22.3961 26.2214 22.3977 26.2169 22.3993C26.2218 22.3961 26.224 22.3953 26.2239 22.3957Z" fill="#3A3A3A"/>
<ellipse rx="0.41323" ry="1.04337" transform="matrix(0.159393 0.986816 -0.980189 0.200336 25.4987 4.31542)" fill="#3A3A3A"/>
<ellipse rx="0.413286" ry="1.04323" transform="matrix(0.380252 0.925636 -0.909335 0.414135 29.4058 13.1337)" fill="#3A3A3A"/>
<path fill-rule="evenodd" clip-rule="evenodd" d="M30.6366 0.121758C30.8239 0.293356 30.8351 0.5827 30.6618 0.768026C30.3428 1.10897 30.1399 1.43808 30.0181 1.88711C29.8919 2.35217 29.8465 2.96889 29.889 3.89503C29.9006 4.14734 29.7033 4.36117 29.4484 4.37264C29.1934 4.38411 28.9773 4.18887 28.9657 3.93656C28.9216 2.97626 28.9628 2.2496 29.1255 1.64997C29.2925 1.03431 29.5806 0.577401 29.9836 0.146615C30.157 -0.0387112 30.4494 -0.0498398 30.6366 0.121758Z" fill="#3A3A3A"/>
<path fill-rule="evenodd" clip-rule="evenodd" d="M36.8255 11.1744C36.769 10.9281 36.5214 10.7738 36.2726 10.8297C35.8147 10.9327 35.4253 10.942 34.9714 10.8219C34.5014 10.6975 33.939 10.4281 33.1498 9.92856C32.9348 9.79247 32.6491 9.85464 32.5116 10.0674C32.3741 10.2802 32.4369 10.563 32.6519 10.6991C33.4701 11.217 34.1266 11.5451 34.7327 11.7055C35.3549 11.8702 35.8988 11.8517 36.4773 11.7217C36.7261 11.6657 36.8821 11.4207 36.8255 11.1744Z" fill="#3A3A3A"/>
<path d="M52.3901 11.8182C52.3901 12.8928 51.9169 13.4302 50.9704 13.4302C50.7015 13.4302 50.1037 13.2971 49.1772 13.0309C48.2507 12.7647 47.5235 12.6316 46.9955 12.6316C45.9295 12.6316 45.1275 13.0802 44.5896 13.9774C44.1712 14.6774 43.9619 15.7964 43.9619 17.3345C43.9619 18.8627 44.1911 19.9718 44.6493 20.662C45.2371 21.5493 46.1786 21.993 47.4737 21.993C48.0913 21.993 48.8236 21.8698 49.6704 21.6233C50.5271 21.3768 51.1099 21.2536 51.4188 21.2536C51.7375 21.2536 52.0115 21.362 52.2406 21.5789C52.4797 21.786 52.5993 22.1606 52.5993 22.7029C52.5993 23.2353 52.0464 23.748 50.9406 24.2409C49.8347 24.724 48.6791 24.9656 47.4737 24.9656H47.13C45.018 24.9656 43.3542 24.3445 42.1388 23.1022C40.9234 21.8599 40.3107 20.169 40.3008 18.0296V16.9795C40.3008 14.633 40.9384 12.809 42.2136 11.5076C43.4887 10.2062 45.3567 9.55547 47.8174 9.55547H48.1461C49.0228 9.55547 49.8497 9.73293 50.6267 10.0879C51.8023 10.6203 52.3901 11.197 52.3901 11.8182Z" fill="#EF7B48"/>
<path d="M61.5206 22.2296H62.1333C63.2191 22.2296 64.0311 21.8155 64.569 20.9874C65.107 20.1592 65.376 19.0451 65.376 17.645V16.8612C65.376 15.4316 65.0871 14.3126 64.5093 13.5041C63.9414 12.6858 63.1494 12.2766 62.1333 12.2766H61.6849C60.6987 12.2766 59.9067 12.6612 59.3089 13.4302C58.7212 14.1893 58.4273 15.2837 58.4273 16.7133V17.6598C58.4273 19.0401 58.6962 20.1493 59.2342 20.9874C59.7821 21.8155 60.5443 22.2296 61.5206 22.2296ZM69.0372 16.4767V17.5119C69.0372 18.557 68.8728 19.5775 68.544 20.5733C68.2252 21.5691 67.7869 22.3726 67.229 22.9839C66.6711 23.5853 65.9438 24.0832 65.0472 24.4776C64.1606 24.8719 63.1893 25.0691 62.1333 25.0691H61.3412C59.3189 25.0691 57.6801 24.3592 56.4248 22.9395C55.329 21.7071 54.781 19.9866 54.781 17.7781V16.7429C54.781 15.6387 54.9504 14.6182 55.2891 13.6816C55.6378 12.745 56.1011 11.9759 56.6789 11.3745C57.2666 10.7731 58.0188 10.3048 58.9353 9.96956C59.8618 9.63434 60.873 9.46673 61.9689 9.46673L62.2379 9.48152C63.1644 9.48152 64.056 9.63927 64.9127 9.95477C66.696 10.6252 67.9114 11.8428 68.559 13.6076C68.8778 14.4654 69.0372 15.4218 69.0372 16.4767Z" fill="#EF7B48"/>
<path d="M84.6382 20.5733C84.6282 20.9479 84.6232 21.5345 84.6232 22.3332C84.6232 23.1219 84.5435 23.6543 84.3841 23.9304C84.2247 24.2064 83.6818 24.3445 82.7553 24.3445C81.8388 24.3445 81.3157 24.2163 81.1862 23.9599C81.0667 23.7036 81.0069 22.974 81.0069 21.7712L80.9621 20.0704C80.9422 19.3113 80.9322 18.5472 80.9322 17.7781C80.9322 15.6978 80.7678 14.3126 80.4391 13.6224C80.1103 12.9323 79.6022 12.5872 78.9148 12.5872C77.5998 12.5872 76.7231 13.095 76.2848 14.1105C76.0058 14.7415 75.8663 16.388 75.8663 19.05C75.8663 21.712 75.7468 23.2451 75.5077 23.6494C75.169 24.2114 74.5015 24.4923 73.5053 24.4923C73.1466 24.4923 72.8677 24.3592 72.6684 24.093C72.4791 23.817 72.3845 23.1613 72.3845 22.1261L72.3994 21.5493V18.6063C72.3994 13.8443 72.4791 11.2365 72.6385 10.783C72.8079 10.3196 73.316 10.0879 74.1628 10.0879C74.4019 10.0879 74.7456 10.1914 75.1939 10.3984C75.6422 10.6055 75.966 10.709 76.1652 10.709C76.3744 10.709 76.8875 10.5513 77.7044 10.2358C78.5313 9.92026 79.3083 9.76251 80.0356 9.76251C80.7728 9.76251 81.6644 10.0041 82.7105 10.4872C83.7665 10.9703 84.3294 11.2118 84.3991 11.2118C84.4688 11.2118 84.7229 11.0886 85.1612 10.8421L86.1176 10.2949C86.8648 9.92026 87.6817 9.73293 88.5683 9.73293C89.455 9.73293 90.2221 9.94984 90.8696 10.3836C91.5271 10.8175 92.0302 11.3745 92.3789 12.0548C92.9169 13.1196 93.1859 15.264 93.1859 18.488L93.2158 20.7803L93.2606 22.4663C93.2606 23.186 93.1659 23.7184 92.9767 24.0635C92.7874 24.3987 92.4437 24.5663 91.9456 24.5663C91.4574 24.5663 91.0191 24.448 90.6305 24.2114C90.252 23.9747 89.968 23.5311 89.7788 22.8803C89.5895 22.2296 89.4948 20.805 89.4948 18.6063C89.4948 16.3978 89.3653 14.988 89.1063 14.3767C88.7178 13.4598 88.0353 13.0013 87.059 13.0013C86.0827 13.0013 85.4402 13.3365 85.1313 14.007C84.8324 14.6675 84.683 15.9295 84.683 17.7929L84.6531 20.0113L84.6382 20.5733Z" fill="#EF7B48"/>
<path d="M109.235 20.5733C109.225 20.9479 109.22 21.5345 109.22 22.3332C109.22 23.1219 109.141 23.6543 108.981 23.9304C108.822 24.2064 108.279 24.3445 107.352 24.3445C106.436 24.3445 105.913 24.2163 105.783 23.9599C105.664 23.7036 105.604 22.974 105.604 21.7712L105.559 20.0704C105.539 19.3113 105.529 18.5472 105.529 17.7781C105.529 15.6978 105.365 14.3126 105.036 13.6224C104.707 12.9323 104.199 12.5872 103.512 12.5872C102.197 12.5872 101.32 13.095 100.882 14.1105C100.603 14.7415 100.463 16.388 100.463 19.05C100.463 21.712 100.344 23.2451 100.105 23.6494C99.766 24.2114 99.0985 24.4923 98.1023 24.4923C97.7436 24.4923 97.4647 24.3592 97.2655 24.093C97.0762 23.817 96.9815 23.1613 96.9815 22.1261L96.9965 21.5493V18.6063C96.9965 13.8443 97.0762 11.2365 97.2356 10.783C97.4049 10.3196 97.913 10.0879 98.7598 10.0879C98.9989 10.0879 99.3426 10.1914 99.7909 10.3984C100.239 10.6055 100.563 10.709 100.762 10.709C100.971 10.709 101.485 10.5513 102.301 10.2358C103.128 9.92026 103.905 9.76251 104.633 9.76251C105.37 9.76251 106.261 10.0041 107.307 10.4872C108.364 10.9703 108.926 11.2118 108.996 11.2118C109.066 11.2118 109.32 11.0886 109.758 10.8421L110.715 10.2949C111.462 9.92026 112.279 9.73293 113.165 9.73293C114.052 9.73293 114.819 9.94984 115.467 10.3836C116.124 10.8175 116.627 11.3745 116.976 12.0548C117.514 13.1196 117.783 15.264 117.783 18.488L117.813 20.7803L117.858 22.4663C117.858 23.186 117.763 23.7184 117.574 24.0635C117.384 24.3987 117.041 24.5663 116.543 24.5663C116.054 24.5663 115.616 24.448 115.228 24.2114C114.849 23.9747 114.565 23.5311 114.376 22.8803C114.186 22.2296 114.092 20.805 114.092 18.6063C114.092 16.3978 113.962 14.988 113.703 14.3767C113.315 13.4598 112.632 13.0013 111.656 13.0013C110.68 13.0013 110.037 13.3365 109.728 14.007C109.429 14.6675 109.28 15.9295 109.28 17.7929L109.25 20.0113L109.235 20.5733Z" fill="#EF7B48"/>
<path d="M130.739 15.0718V14.8203C130.739 14.0415 130.475 13.4253 129.947 12.9717C129.419 12.5182 128.786 12.2914 128.049 12.2914H127.675C126.809 12.2914 126.082 12.5823 125.494 13.164C124.906 13.7457 124.612 14.4556 124.612 15.2936V15.5302C124.612 15.7964 124.936 15.9295 125.583 15.9295H126.346L126.435 15.9147L129.603 15.7668L129.932 15.7373C130.47 15.7373 130.739 15.5154 130.739 15.0718ZM129.514 18.2958C126.296 18.2958 124.687 18.631 124.687 19.3014C124.687 20.1493 125.001 20.8197 125.628 21.3127C126.256 21.8057 127.048 22.0522 128.004 22.0522C128.961 22.0522 129.882 21.9289 130.769 21.6824C131.655 21.4261 132.253 21.2979 132.562 21.2979C132.881 21.2979 133.145 21.4261 133.354 21.6824C133.573 21.9289 133.683 22.3036 133.683 22.8064C133.683 23.2994 133.135 23.8022 132.039 24.3149C130.953 24.8276 129.832 25.0839 128.677 25.0839H127.586C126.729 25.0839 125.823 24.9114 124.866 24.5663C122.993 23.8959 121.783 22.6733 121.235 20.8986C120.926 19.9127 120.772 18.9169 120.772 17.9112V17.2014C120.772 13.5929 122.057 11.2463 124.627 10.1618C125.583 9.75758 126.669 9.55547 127.885 9.55547C129.947 9.55547 131.516 10.0682 132.592 11.0935C133.05 11.5372 133.439 12.1682 133.758 12.9865C134.086 13.8048 134.251 14.5591 134.251 15.2492V16.2401C134.251 17.088 133.942 17.645 133.324 17.9112C132.716 18.1676 131.446 18.2958 129.514 18.2958Z" fill="#EF7B48"/>
<path d="M137.688 12.114C137.688 11.3351 137.762 10.8076 137.912 10.5315C138.071 10.2555 138.475 10.1174 139.122 10.1174C139.78 10.1174 140.258 10.2259 140.557 10.4428C140.617 10.4822 140.756 10.6301 140.975 10.8865C141.204 11.133 141.379 11.2562 141.498 11.2562C141.628 11.2562 141.912 11.1379 142.35 10.9013C143.496 10.2703 144.457 9.95477 145.234 9.95477H146.011C146.738 9.95477 147.421 10.1076 148.058 10.4132C149.324 11.0245 150.116 12.0499 150.434 13.4893C150.594 14.1893 150.674 15.2295 150.674 16.6098L150.793 20.3366L150.928 23.2797C150.928 23.7135 150.833 24.0142 150.644 24.1818C150.464 24.3494 150.041 24.4332 149.373 24.4332C148.357 24.4332 147.75 24.0388 147.55 23.2501C147.421 22.7472 147.306 21.2683 147.207 18.8134C147.117 16.3584 146.958 14.8351 146.728 14.2436C145.971 13.2971 145.154 12.7252 144.278 12.5281C143.072 12.5281 142.225 12.952 141.737 13.7999C141.369 14.4309 141.184 15.683 141.184 17.5563L141.14 18.7394L141.11 20.3366C141.11 22.2494 141.045 23.3733 140.915 23.7085C140.686 24.3001 140.054 24.5959 139.018 24.5959C138.38 24.5959 137.977 24.4973 137.807 24.3001C137.638 24.093 137.553 23.7578 137.553 23.2944L137.568 22.9099C137.568 22.5156 137.568 22.1261 137.568 21.7416L137.628 19.3901V16.6246L137.643 16.2401C137.643 15.9837 137.643 15.7274 137.643 15.4711L137.673 13.5633L137.688 13.1936V12.114Z" fill="#EF7B48"/>
<path d="M162.912 23.4423C162.912 24.3198 162.006 24.7586 160.193 24.7586C158.379 24.7586 157.099 24.1473 156.352 22.9247C155.784 21.9782 155.5 20.0704 155.5 17.2014V16.5654L155.47 15.6485L155.455 15.338L155.441 14.4063C155.441 13.7062 155.391 13.2576 155.291 13.0605C155.201 12.8534 154.903 12.6119 154.395 12.3358C153.896 12.0597 153.647 11.6999 153.647 11.2562V10.99C153.647 10.221 153.931 9.70336 154.499 9.43715C155.067 9.16109 155.401 8.90475 155.5 8.66813C155.51 8.63855 155.59 8.20474 155.739 7.36669C155.899 6.52865 156.078 5.96174 156.277 5.66596C156.487 5.37018 156.945 5.22229 157.652 5.22229C158.369 5.22229 158.823 5.4392 159.012 5.87301C159.082 6.03076 159.191 6.54837 159.341 7.42585C159.49 8.30333 159.66 8.85545 159.849 9.08222C160.038 9.29912 160.491 9.47659 161.209 9.61462C161.926 9.75265 162.374 9.89068 162.554 10.0287C162.743 10.1667 162.838 10.502 162.838 11.0344C162.838 11.5668 162.613 11.9316 162.165 12.1287C161.986 12.2076 161.562 12.2766 160.895 12.3358C160.227 12.3851 159.774 12.5428 159.535 12.809C159.306 13.0752 159.191 14.002 159.191 15.5894L159.176 15.8999C159.166 16.107 159.161 16.314 159.161 16.5211L159.147 16.8316V17.4676C159.147 19.469 159.281 20.6669 159.55 21.0613C159.829 21.4557 160.312 21.6923 161 21.7712C161.687 21.85 162.175 22.0029 162.464 22.2296C162.763 22.4564 162.912 22.8606 162.912 23.4423Z" fill="#EF7B48"/>
<path d="M177.467 11.8182C177.467 12.8928 176.994 13.4302 176.048 13.4302C175.779 13.4302 175.181 13.2971 174.254 13.0309C173.328 12.7647 172.601 12.6316 172.073 12.6316C171.007 12.6316 170.205 13.0802 169.667 13.9774C169.248 14.6774 169.039 15.7964 169.039 17.3345C169.039 18.8627 169.268 19.9718 169.727 20.662C170.314 21.5493 171.256 21.993 172.551 21.993C173.169 21.993 173.901 21.8698 174.748 21.6233C175.604 21.3768 176.187 21.2536 176.496 21.2536C176.815 21.2536 177.089 21.362 177.318 21.5789C177.557 21.786 177.676 22.1606 177.676 22.7029C177.676 23.2353 177.124 23.748 176.018 24.2409C174.912 24.724 173.756 24.9656 172.551 24.9656H172.207C170.095 24.9656 168.431 24.3445 167.216 23.1022C166.001 21.8599 165.388 20.169 165.378 18.0296V16.9795C165.378 14.633 166.016 12.809 167.291 11.5076C168.566 10.2062 170.434 9.55547 172.895 9.55547H173.223C174.1 9.55547 174.927 9.73293 175.704 10.0879C176.88 10.6203 177.467 11.197 177.467 11.8182Z" fill="#EF7B48"/>
<path d="M183.833 20.3662C183.833 20.869 184.087 21.2881 184.595 21.6233C185.103 21.9585 185.651 22.1261 186.239 22.1261H186.672C187.679 22.1261 188.466 21.7662 189.034 21.0465C189.283 20.731 189.407 20.0902 189.407 19.1239L189.422 18.9465V18.5768C189.422 17.9556 189.088 17.645 188.421 17.645H187.21C186.115 17.645 185.273 17.8274 184.685 18.1922C184.097 18.557 183.803 19.0007 183.803 19.5232V20.0704C183.823 20.2085 183.833 20.3071 183.833 20.3662ZM189.258 14.421C189.258 12.9717 188.336 12.2471 186.493 12.2471C185.816 12.2471 184.969 12.3752 183.953 12.6316C182.947 12.8879 182.309 13.0161 182.04 13.0161C181.771 13.0161 181.522 12.883 181.293 12.6168C181.074 12.3506 180.964 12.0154 180.964 11.6111C180.964 10.9506 181.363 10.4329 182.16 10.0583C183.275 9.53575 184.62 9.27447 186.194 9.27447H186.568C189.128 9.27447 190.951 9.99421 192.037 11.4337C192.456 11.9858 192.73 12.6464 192.859 13.4154C192.989 14.1746 193.053 15.5006 193.053 17.3936C193.053 19.2768 193.118 20.5979 193.248 21.3571C193.377 22.1163 193.442 22.7522 193.442 23.2649C193.442 23.7677 193.342 24.1374 193.143 24.374C192.944 24.6008 192.515 24.7142 191.858 24.7142C191.2 24.7142 190.747 24.6501 190.498 24.5219C190.249 24.3938 190.015 24.2311 189.796 24.0339C189.586 23.8367 189.417 23.7381 189.288 23.7381C189.158 23.7381 188.585 23.9402 187.569 24.3445C186.553 24.7388 185.676 24.936 184.939 24.936H184.58C183.146 24.936 182.02 24.5071 181.203 23.6494C180.386 22.7818 179.978 21.7367 179.978 20.5141V19.7894C179.978 19.2077 180.137 18.6211 180.456 18.0296C181.333 16.3929 183.499 15.5056 186.956 15.3675C188.152 15.3182 188.834 15.2492 189.004 15.1605C189.173 15.0619 189.258 14.8154 189.258 14.421Z" fill="#EF7B48"/>
<path d="M197.163 12.0252V11.5668C197.163 10.9949 197.282 10.5759 197.521 10.3097C197.771 10.0435 198.164 9.9104 198.702 9.9104H198.926C199.434 9.9104 199.957 10.0879 200.495 10.4428C200.665 10.5513 200.839 10.7238 201.018 10.9604C201.198 11.1872 201.322 11.3006 201.392 11.3006C201.472 11.3006 201.681 11.1773 202.019 10.9308C202.368 10.6844 202.762 10.4625 203.2 10.2653C203.638 10.0583 204.186 9.95477 204.844 9.95477C205.501 9.95477 205.984 10.0928 206.293 10.3689C206.602 10.6449 206.757 10.9111 206.757 11.1675C206.757 11.8773 206.527 12.4442 206.069 12.8682C205.87 13.0555 205.387 13.1492 204.62 13.1492C203.853 13.1492 203.235 13.2576 202.767 13.4745C202.298 13.6915 201.925 14.0858 201.646 14.6577C201.367 15.2196 201.227 16.8464 201.227 19.538C201.227 22.2198 201.118 23.748 200.899 24.1226C200.69 24.4973 200.082 24.6846 199.076 24.6846H198.822L198.568 24.6698C198.01 24.6698 197.656 24.5811 197.507 24.4036C197.357 24.2261 197.282 23.6494 197.282 22.6733L197.417 19.9373L197.447 19.1831V17.8965L197.432 17.1274V16.6098L197.417 15.8556C197.417 15.688 197.417 15.5204 197.417 15.3528L197.387 14.5985C197.387 14.1844 197.347 13.6915 197.267 13.1196C197.198 12.5379 197.163 12.1731 197.163 12.0252Z" fill="#EF7B48"/>
<path d="M219.399 16.8612C219.399 15.4218 219.185 14.3717 218.756 13.7112C218.158 12.7844 217.396 12.321 216.47 12.321H215.872C214.726 12.321 213.88 12.7696 213.332 13.6668C213.013 14.1893 212.854 15.1851 212.854 16.6542V18.3993L212.868 18.5472L212.883 18.9761L212.928 19.6859C212.928 20.4451 213.152 21.0712 213.601 21.5641C214.059 22.0472 214.682 22.2888 215.469 22.2888H215.887C216.893 22.2888 217.72 21.9092 218.368 21.15C219.025 20.381 219.354 19.4197 219.354 18.2662L219.384 17.9556L219.399 17.3345V16.8612ZM219.16 24.5071C218.353 24.8226 217.581 24.9804 216.843 24.9804C216.116 24.9804 215.578 24.9311 215.23 24.8325C214.891 24.7339 214.552 24.6254 214.213 24.5071C213.875 24.3888 213.665 24.3297 213.586 24.3297C213.118 24.3297 212.883 25.6607 212.883 28.3227C212.883 29.2495 212.749 29.8903 212.48 30.2453C212.221 30.6002 211.728 30.7777 211.001 30.7777H210.687C209.969 30.7777 209.541 30.6396 209.402 30.3636C209.272 30.0875 209.207 28.9882 209.207 27.0656V26.7255L209.222 26.3853V25.01L209.297 20.9578V15.5746C209.297 12.3407 209.307 10.6893 209.327 10.6203C209.466 10.1372 210.119 9.89561 211.284 9.89561C211.733 9.89561 212.116 10.0435 212.435 10.3393C212.754 10.6252 212.973 10.7682 213.093 10.7682C213.212 10.7682 213.471 10.6597 213.87 10.4428C214.896 9.89068 215.902 9.61462 216.888 9.61462C219.817 9.61462 221.7 10.9013 222.537 13.4745C222.846 14.4112 223 15.4366 223 16.5507V17.2901C223 18.3648 222.861 19.3951 222.582 20.381C221.994 22.4613 220.853 23.8367 219.16 24.5071Z" fill="#EF7B48"/>
</svg>
